<?xml version="1.0" encoding="utf-8"?>
<!-- Generator: Adobe Illustrator 27.5.0, SVG Export Plug-In . SVG Version: 6.00 Build 0)  -->
<svg version="1.1" id="Layer_1" xmlns="http://www.w3.org/2000/svg" xmlns:xlink="http://www.w3.org/1999/xlink" x="0px" y="0px"
     viewBox="0 0 680 552" style="enable-background:new 0 0 680 552;" xml:space="preserve">
<g>
	<g>
		<path style="fill:#18204A;" d="M571.067,333.287c0,0-23.005,26.788-9.972,55.802c0,0-52.934,29.229-85.845,23.059
			c-32.911-6.171-67.843-39.174-67.843-39.174l24.889-16.854c0,0,45.544,17.57,68.309,6.27
			C523.369,351.09,571.067,333.287,571.067,333.287z"/>
        <path style="fill:#306BAD;" d="M126.553,336.43c0,0,149.801,167.541,289.75,80.842L286,327.602L126.553,336.43z"/>
        <path style="opacity:0.6;fill:#306BAD;" d="M328.847,393.178c3.183-1.072,6.599-0.203,9.694,0.803
			c14.491,4.713,27.714,13.208,40.926,20.637c6.799,3.82,13.891,7.387,20.51,11.609c5.449-2.623,10.896-5.592,16.326-8.955
			L286,327.602l-159.447,8.828c0,0,1.781,1.99,5.133,5.425c12.309,5.755,25.22,10.275,38.34,13.685
			c22.521,5.855,45.807,8.778,69.093,7.989c5.592-0.189,11.349-0.065,16.899-0.8c3.791-0.501,7.612-1.244,11.447-1.289
			c3.256-0.039,10.214,0.523,8.98,5.514c-1.135,4.587-7.677,7.969-11.329,10.123c-4.71,2.779-9.606,5.158-14.485,7.615
			c-10.26,5.162-20.789,9.259-31.695,12.842c-4.246,1.393-8.665,2.671-13.07,4.043c2.92,1.824,5.9,3.625,8.937,5.397
			c1.196-0.522,2.384-1.067,3.583-1.58c11.52-4.919,23.262-9.223,34.88-13.887c10.28-4.127,20.63-8.427,31.451-10.944
			c9.698-2.254,26.25-6.137,28.653,7.578c1.998,11.402-10.352,45.945-12.573,51.561c4.899,0.81,9.849,1.428,14.833,1.848
			C316.613,434.855,325.789,394.211,328.847,393.178z"/>
        <path style="fill:#306BAD;" d="M427.647,170.264l6.826-6.033c0,0,96.309,55.758,56.746,183.941l-171.053-45.378L427.647,170.264z"
        />
        <path style="opacity:0.6;fill:#306BAD;" d="M484.443,313.022c-11.294-1.597-22.463-4.115-33.629-6.424
			c-7.256-1.499-14.718-2.629-21.868-4.609c-4.063-1.126-9.805-2.697-12.095-6.668c-3.105-5.387,1.266-11.205,4.85-15.16
			c6.793-7.49,13.887-14.804,21.209-21.777c8.413-8.014,17.186-15.648,25.434-23.838c3.385-3.36,6.567-6.953,10.055-10.203
			c1.845-1.721,3.867-3.452,5.53-5.43c-0.48-0.915-0.966-1.82-1.458-2.711c-14.449,14.025-29.852,27.021-45.772,39.348
			c-8.369,6.479-16.259,13.735-24.978,19.741c-2.326,1.603-12.264,9.735-15.186,5.851c-1.658-2.205,0.101-6.148,0.847-8.34
			c1.801-5.285,3.999-10.404,6.202-15.529c4.426-10.285,8.245-20.777,11.881-31.362c6.932-20.173,15.966-40.322,19.264-61.524
			c-0.166-0.102-0.256-0.154-0.256-0.154l-6.826,6.033l-107.481,132.53l171.053,45.378c3.592-11.637,6.046-22.666,7.572-33.121
			L484.443,313.022z"/>
        <g>
			<path style="fill:#F4F1F0;" d="M569.945,380.297c-8.497,9.006-17.099,16.439-25.615,22.615c4.527,4.242,7.9,9.555,8.656,15.623
				c21.248-14.773,33.701-29.604,33.701-29.604C580.378,373.451,569.945,380.297,569.945,380.297z"/>
            <path style="fill:#D04127;" d="M636.148,399.316c0,0-3.519,11.31-14.006,7.732c-10.478-3.564-25.65-11.588-30.863-10.464
				c-5.212,1.135-6.916,5.385-12.203,0.137c-5.305-5.268,0.23-10.562,0.23-10.562l-9.361-5.863l-2.752,2.932
				c0,0-3.091-0.658-4.172-5.051c-1.082-4.374,3.545-6.021,5.971-7.541c2.408-1.537,10.445-6.701,10.445-6.701
				s23.566-0.781,41.659,9.85C639.19,384.42,636.148,399.316,636.148,399.316z"/>
            <path style="fill:#1A6AA0;" d="M602.696,379.691c-10.597,0.135-20.786-4.912-26.796-13.482c-1.791,1.15-3.904,2.506-5.443,3.492
				c9.193,11.541,23.652,15.887,38.227,13.471c4.998-0.826,12.063-2.448,18.098-5.365c-0.988-0.845-2.09-1.678-3.29-2.494
				C617.023,378.424,609.279,379.609,602.696,379.691z"/>
            <path style="fill:#18204A;" d="M575.232,366.634c13.637,0.296,27.764,4.558,39.033,11.245
				c8.901,5.322,20.435,16.367,18.215,27.227c2.629-2.483,3.668-5.789,3.668-5.789s3.041-14.897-15.052-25.531
				c-18.093-10.631-41.659-9.85-41.659-9.85S577.498,365.191,575.232,366.634z"/>
		</g>
        <path style="fill:#3D5155;" d="M354,395c0,0,84.566,41.377,144.81,40.941c60.242-0.436,84.455-29.682,84.455-29.682
			s5.986-4.01-3.475-13.498c-9.462-9.489-20.742-16.682-32.523-10.615c-11.784,6.068-70.568,10.836-70.568,10.836l-79.846-30.886
			L354,395z"/>
        <path style="fill:#3D5155;" d="M581.209,394.277c0.162,5.754-5.299,10.748-9.738,13.657c-7.959,5.219-17.091,8.791-26.055,11.858
			c-21.44,7.337-44.111,11.043-66.788,10.6c-24.957-0.49-48.951-6.225-72.538-14.068c-2.145-0.713-4.277-1.457-6.416-2.196
			c29.268,10.772,67.543,22.042,99.137,21.814c60.242-0.436,84.455-29.682,84.455-29.682S588.604,402.678,581.209,394.277z"/>
        <path style="fill:#4BAB48;" d="M478.25,418.99c-8.73-1.201-18.287,4.036-22.553,11.84c13.126,2.832,26.258,4.738,38.529,5.06
			C492.191,427.961,486.135,420.076,478.25,418.99z"/>
        <path style="fill:#306BAD;" d="M444.692,387.867c7.218,4.027,15.007,8.075,21.257,13.564c4.621,4.057,7.565,8.912,9.512,14.615
			c2.293-3.978,3.805-8.044,7.793-10.834c3.576-2.5,7.565-4.326,11.682-5.752c9.274-3.213,18.926-4.932,28.358-7.567
			c11.086-3.101,22.783-7.073,34.392-7.278c5.851-0.104,11.281,0.857,16.315,2.9c-8.135-6.555-17.269-10.242-26.732-5.369
			c-11.784,6.068-70.568,10.836-70.568,10.836l-79.846-30.886l-0.611,0.47C412.211,371.341,428.776,378.988,444.692,387.867z"/>
        <path style="fill:#F4F1F0;" d="M561.875,297.703c0,0-5.289,10.486-12.615,21.988c5.523,1.089,10.344,3.781,14.414,7.453
			c4.061-8.078,7.053-15.962,8.083-21.838C571.757,305.307,569.493,295.287,561.875,297.703z"/>
        <path style="fill:#D04127;" d="M613.715,319.859c-7.975-11.504-19.303-24.102-32.097-32.247
			c-12.806-8.143-13.408-5.048-15.638-3.31c-5.608,4.41-10.863,14.174-10.113,15.664c0.75,1.483,3.724,2.467,3.724,2.467l1.472-3.85
			c5.318-2.985,10.694,6.723,10.694,6.723s-2.963,2.435-2.825,6.402c0.338,10.162,6.215,6.801,8.694,5.551
			c2.475-1.248,3.846,2.415,6.469,6.677c15.576,25.355,34.51,14.883,34.51,14.883S621.69,331.376,613.715,319.859z"/>
        <path style="fill:#1A6AA0;" d="M566.008,284.279c-0.01,0.008-0.02,0.016-0.027,0.023c-1.775,1.396-3.516,3.33-5.039,5.367
			c6.287,7.959,15.63,16.781,25.414,18.824c3.658,0.765,7.146,0.766,10.82,0.199c1.416-0.219,4.449-0.534,6.668-1.463
			c-0.855-0.977-1.734-1.946-2.629-2.906C587.934,308.366,572.606,296.478,566.008,284.279z"/>
        <path style="fill:#18204A;" d="M613.715,319.859c-7.975-11.504-19.303-24.102-32.097-32.247
			c-12.806-8.143-13.408-5.048-15.638-3.31c-0.865,0.689-1.725,1.512-2.555,2.389c10.85,0.9,20.74,9.225,28.393,16.228
			c11.269,10.369,19.352,22.803,24.689,36.793c1.344-0.472,2.097-0.894,2.097-0.894S621.69,331.376,613.715,319.859z"/>
        <path style="fill:#3D5155;" d="M519.701,377.027c11.79-7.938,49.563-36.346,54.184-41.43c2.692-2.965,5.422-7.425,5.162-11.416
			c-4.988-6.971-15.158-15.385-35.582-17.338c-10.528-1.007-42.224,26.246-52.246,41.328c0,0-84.287-43.264-98.471-33.776
			l-44.408,76.22c0,0,0.379,0.125,1.014,0.328c0.186-0.301,0.529-0.48,0.937-0.262c9.142,4.896,22.39,1.615,31.338-2.426
			c9.854-4.453,18.144-11.532,27.783-16.322C418.162,367.584,478.343,404.867,519.701,377.027z"/>
        <path style="fill:#3D5155;" d="M513.456,377.595c-7.214,3.343-15.11,6.677-23.073,7.669c-7.482,0.932-14.918-0.213-22.233-1.816
			c-15.589-3.414-31.954-6.824-46.419-13.774c-4.557-2.189-7.858-5.141-9.057-10.226c-0.428-1.814-0.675-3.652-0.887-5.495
			c-3.064,8.853-8.009,17.597-14.336,25.069c3.892-2.525,7.799-5.022,11.96-7.088c8.751-4.35,68.932,32.934,110.29,5.094
			c3.32-2.237,8.706-6.1,14.833-10.605C527.633,370.428,520.646,374.262,513.456,377.595z"/>
        <path style="fill:#4BAB48;" d="M477.424,387.297c12.439,0.672,25.096-0.988,36.632-6.969
			C506.66,366.791,484.645,376.225,477.424,387.297z"/>
        <path style="fill:#306BAD;" d="M395.369,327.838c11.306,0.008,22.428,2.345,33.146,5.84c11.396,3.719,22.398,8.512,33.355,13.347
			c10.003,4.412,19.934,9.122,28.907,15.419c7.597-14.741,19.529-27.35,31.38-38.758c6.781-6.527,14.088-12.496,22.318-16.721
			c-0.342-0.037-0.664-0.088-1.012-0.121c-10.528-1.007-42.224,26.246-52.246,41.328c0,0-84.287-43.264-98.471-33.776l-8.674,14.888
			C387.742,328.266,391.52,327.836,395.369,327.838z"/>
        <g>
			<g>
				<path style="fill:#EFCAA7;" d="M126.097,313.186c3.688-4.926,0.927-7.274-2.924-11.556c-4.013-4.463-5.486-12.053-6.407-14.967
					c-0.905-2.913-3.09-1.563-4.64,0.139c-2.736,3.025-0.466,8.305,1.366,11.801c-1.009-0.758-1.59-1.275-1.59-1.275
					s0.361-1.115-13.564-9.424c-2.895-1.725-6.084-3.488-7.864-4.064c-6.782-2.195-5.938,3.104,0.188,6.492
					c6.705,3.738,14.668,12.74,14.668,12.74c-4.074-3.173-10.483-6.431-15.769-8.303c-4.674-1.659-7.167-1.862-8.833-0.107
					c-1.229,1.318-0.093,3.461,2.251,4.548c3.701,1.722,5.568,2.028,8.048,3.165c5.8,2.655,10.06,6.711,10.06,6.711
					c-25.402-7.053-19.71,2.357-13.73,3.71c5.979,1.362,14.504,3.827,14.504,3.827c-17.355,0.504-14.231,7.918-10.831,7.289
					c3.435-0.656,12.501-2.908,14.375-1.613c9.307,6.365,13.965,2.323,13.965,2.323c80.26,44.669,145.725,18.072,145.725,18.072
					l-12.637-21.284C184.264,343.993,130.493,315.607,126.097,313.186z"/>
                <g>
					<path style="fill:#EFCAA7;" d="M112.126,286.803c-4.011,4.443,2.685,13.658,3.092,15.103c0.406,1.435-0.728,1.622-1.978,2.956
						c-4.682,5.094-3.444,8.406-0.831,10.473l10.372,1.543c0.746-0.676,1.652-1.639,2.771-2.992
						c4.495-5.434,1.637-7.771-2.38-12.254c-4.013-4.463-5.486-12.053-6.407-14.967C115.86,283.751,113.676,285.102,112.126,286.803
						z"/>
                    <path style="fill:#C9976D;" d="M112.375,315.381c0,0-0.241-0.169-0.65-0.516c-0.231-0.139-0.457-0.395-0.728-0.712
						c-0.121-0.159-0.261-0.323-0.403-0.5c-0.116-0.207-0.229-0.418-0.343-0.663c-0.313-0.452-0.335-1.064-0.489-1.686
						c-0.01-0.324,0.044-0.667,0.069-1.002c0.008-0.179,0.008-0.358,0.031-0.542c0.052-0.166,0.105-0.334,0.164-0.515
						c0.113-0.347,0.232-0.716,0.351-1.078c0.188-0.347,0.389-0.7,0.581-1.048c0.36-0.736,0.94-1.366,1.476-2.07
						c0.24-0.338,0.574-0.709,0.885-1.02c0.357-0.297,0.683-0.596,1.034-0.91c0.299-0.295,0.422-0.469,0.389-0.788
						c0.001-0.331-0.257-0.738-0.439-1.126c-0.951-1.71-1.876-3.631-2.613-5.674c-0.664-2.036-1.36-4.305-0.844-6.611
						c0.263-1.135,0.948-2.207,1.816-2.971c0.417-0.395,0.877-0.777,1.453-1.045c0.529-0.276,1.325-0.393,1.947,0.027
						c0.577,0.41,0.871,1.016,1.096,1.594l0.528,1.631c0.332,1.076,0.667,2.172,1.009,3.248c0.683,2.129,1.489,4.165,2.444,6.025
						c1.036,1.86,2.137,3.406,3.516,4.861c1.286,1.482,2.611,2.899,3.315,4.672c0.326,0.885,0.435,1.818,0.302,2.68
						c-0.152,0.852-0.479,1.59-0.854,2.213c-0.744,1.234-1.58,2.219-2.321,2.887c-1.44,1.385-2.273,2.178-2.273,2.178l-0.077-0.078
						c0,0,0.718-0.895,1.99-2.45c0.668-0.763,1.363-1.69,1.965-2.894c0.302-0.607,0.504-1.291,0.609-1.975
						c0.068-0.712-0.049-1.441-0.357-2.146c-0.63-1.44-1.949-2.758-3.262-4.209c-1.377-1.352-2.7-3.221-3.693-5.148
						c-0.951-1.98-1.743-4.101-2.368-6.298c-0.268-1.09-0.551-2.199-0.839-3.299c-0.318-1.092-0.418-2.354-1.121-2.935
						c-0.741-0.556-1.898,0.121-2.708,0.808c-0.859,0.728-1.454,1.652-1.729,2.708c-0.473,2.166,0.252,4.367,1.074,6.275
						c0.853,1.955,1.975,3.678,2.928,5.414c0.238,0.48,0.563,0.9,0.604,1.541c0.11,0.672-0.316,1.388-0.718,1.688
						c-0.405,0.357-0.731,0.598-1.039,0.863c-0.34,0.307-0.604,0.592-0.859,0.936c-0.533,0.641-1.108,1.221-1.456,1.887
						c-0.2,0.33-0.389,0.641-0.584,0.941c-0.129,0.313-0.249,0.625-0.376,0.926l-0.18,0.473c-0.033,0.154-0.044,0.305-0.072,0.455
						c-0.049,0.3-0.093,0.584-0.12,0.869c0.105,0.54,0.072,1.086,0.298,1.516c0.091,0.218,0.167,0.434,0.231,0.643
						c0.121,0.16,0.227,0.34,0.338,0.496c0.187,0.315,0.391,0.57,0.591,0.752c0.368,0.411,0.551,0.614,0.551,0.614L112.375,315.381z
						"/>
				</g>
			</g>
            <path style="fill:#D04127;" d="M299.234,301.074c-4.871-3.045-10.178-5.962-15.105-9.328
				c-22.699,44.774-151.291,20.397-151.291,20.397c-7.795,20.334-6.285,24.287-6.285,24.287
				c130.235,39.899,175.613-3.769,190.021-23.432C310.907,308.778,305.122,304.754,299.234,301.074z"/>
            <path style="fill:#D04127;" d="M287.525,336.256c-22.085,6.973-45.902,9.516-68.992,9.365
				c-11.905-0.076-23.695-1.262-35.502-2.666c-11.913-1.414-23.935-2.924-35.52-6.138c-4.395-1.22-8.714-2.685-13.061-4.055
				c-2.182-0.689-5.173-1.481-7.25-3.028c-1.174,5.314-0.649,6.695-0.649,6.695c91.997,28.184,141.646,14.669,167.951-2.627
				C292.2,334.688,289.877,335.514,287.525,336.256z"/>
            <path style="fill:#FECE2E;" d="M178.706,324.001c18.076,0.403,34.653,1.463,52.676-0.099
				c23.728-2.055,48.081-10.724,68.249-22.574c-0.134-0.082-0.264-0.171-0.396-0.254c-4.871-3.045-10.178-5.962-15.105-9.328
				c-22.699,44.774-151.291,20.397-151.291,20.397c-0.704,1.836-1.33,3.533-1.891,5.111
				C146.355,322.005,162.628,323.641,178.706,324.001z"/>
		</g>
        <g>
			<g>
				<path style="fill:#EFCAA7;" d="M410.6,144.866c-0.834,5.7-1.83,9.184,3.974,11.239c-0.856,1.639-5.349,9.934-14.124,20.698
					c4.217,2.557,8.386,5.191,12.537,7.857c4.717-6.943,9.264-14.49,13.522-22.764c0,0,6.117,0.779,10.338-9.677
					c0.842-2.115,9.635-5.269,12.855-6.626c3.181-1.364,1.671-9.264-13.053-0.063c0,0,5.729-6.776,9.949-11.225
					c4.229-4.44,3.75-15.43-13.482,4.522c0,0,1.295-5.737,4.648-11.162c1.438-2.32,2.82-3.61,4.945-7.094
					c1.348-2.204,1.108-4.618-0.646-5.035c-2.36-0.537-4.323,1.014-7.294,4.987c-3.361,4.487-6.887,10.752-8.522,15.651
					c0,0,1.637-11.907,5.149-18.735c3.219-6.218,0.984-11.096-3.443-5.508c-1.162,1.466-2.838,4.703-4.293,7.742
					c-6.982,14.636-6.067,15.364-6.067,15.364s-0.195,0.751-0.614,1.942c-0.416-3.925-1.451-9.579-5.402-10.579
					c-2.234-0.559-4.801-0.471-3.94,2.455C408.484,131.794,411.465,138.928,410.6,144.866z"/>
                <g>
					<path style="fill:#EFCAA7;" d="M411.576,126.403c5.799,1.475,5.335,12.855,5.796,14.283c0.458,1.419,1.505,0.947,3.286,1.364
						c6.717,1.645,7.523,5.089,6.496,8.258l-7.777,7.032c-0.997-0.149-2.285-0.449-3.967-0.955
						c-6.754-2.029-5.668-5.561-4.811-11.519c0.865-5.938-2.115-13.072-2.963-16.008
						C406.775,125.932,409.342,125.844,411.576,126.403z"/>
                    <path style="fill:#C9976D;" d="M427.73,147.901c-0.016-0.238-0.037-0.477-0.081-0.742c0.011-0.551-0.312-1.071-0.526-1.676
						c-0.174-0.275-0.406-0.531-0.612-0.796c-0.105-0.143-0.206-0.294-0.329-0.435c-0.133-0.108-0.271-0.217-0.418-0.336
						c-0.287-0.227-0.592-0.468-0.891-0.703c-0.35-0.184-0.713-0.368-1.064-0.55c-0.709-0.412-1.539-0.617-2.377-0.906
						c-0.389-0.145-0.87-0.271-1.301-0.358c-0.462-0.048-0.899-0.116-1.367-0.183c-0.41-0.081-0.609-0.156-0.759-0.44
						c-0.186-0.274-0.194-0.757-0.258-1.183c-0.157-1.95-0.454-4.06-0.97-6.171c-0.54-1.928-1.201-4.02-2.677-5.623
						c-0.005,0.207-0.008,0.414-0.015,0.62c1.168,1.48,1.715,3.367,2.036,5.139c0.375,2.098,0.397,4.153,0.565,6.128
						c0.065,0.532,0.028,1.061,0.352,1.614c0.279,0.622,1.032,0.982,1.533,1.007c0.535,0.074,0.939,0.095,1.342,0.144
						c0.453,0.068,0.83,0.158,1.233,0.302c0.802,0.236,1.6,0.404,2.257,0.764c0.352,0.162,0.681,0.319,1.01,0.46
						c0.28,0.189,0.555,0.381,0.824,0.562l0.414,0.294c0.112,0.108,0.203,0.23,0.313,0.338c0.206,0.223,0.4,0.434,0.579,0.658
						c0.214,0.509,0.542,0.944,0.594,1.426c0.046,0.233,0.103,0.454,0.162,0.662c-0.01,0.202,0.001,0.41-0.003,0.602
						c0.018,0.364-0.012,0.691-0.076,0.953c-0.078,0.547-0.117,0.816-0.117,0.816l0.106,0.037c0,0,0.106-0.275,0.254-0.789
						c0.117-0.244,0.161-0.581,0.211-0.997C427.688,148.342,427.712,148.129,427.73,147.901z"/>
				</g>
			</g>
            <path style="fill:#D04127;" d="M301.643,286.963c74.172-64.859,107.672-130.986,107.672-130.986
				c14.349,8.637,25.158,8.254,25.158,8.254c-35.064,98.253-77.301,141.609-101.675,141.914
				C312.574,310.068,296.414,291.535,301.643,286.963z"/>
            <path style="fill:#D04127;" d="M413.898,158.492c0.895,0.729,1.827,1.446,2.787,2.191c2.513,1.955,4.793,3.781,5.768,6.9
				c1.729,5.533-2.125,12.6-4.07,17.594c-6.654,17.073-14.238,38.621-24.085,53.973c-14.985,23.361-30.556,42.842-49.079,63.748
				c24.773-11.698,59.58-55.521,89.254-138.668C434.473,164.23,425.898,164.516,413.898,158.492z"/>
            <path style="fill:#FECE2E;" d="M365.385,234.201c10.646-13.051,20.621-26.658,30.179-40.523
				c4.521-6.564,8.393-13.477,12.72-20.15c2.875-4.432,6.244-8.833,8.406-13.71c-2.318-1.026-4.785-2.282-7.375-3.841
				c0,0-33.5,66.127-107.672,130.986c-1.459,1.275-1.25,3.637,0.244,6.294C326.268,277.702,347.213,256.477,365.385,234.201z"/>
		</g>
        <path style="fill:#D04127;" d="M414.908,315.895c-33.881-14.58-60.758-19.786-81.539-29.594
			c-20.285-7.229-32.271-3.948-40.158-2.764l-22.755,24.912l-1.38,11.16C288.25,375.387,354,395,354,395
			C413.072,384.607,414.908,315.895,414.908,315.895z"/>
        <path style="fill:#D04127;" d="M414.908,315.895c-33.881-14.58-60.758-19.786-81.539-29.594
			c-5.363-1.911-10.132-3.073-14.412-3.748c9.134,6.044,17.498,13.414,25.539,20.789c7.392,6.777,15.105,13.218,21.209,21.252
			c5.226,6.877,10.289,15.415,10.216,24.348c-0.061,7.666-3.921,14.449-10.332,18.656c-15.091,9.906-35.436,8.344-51.32,1.242
			c-12.056-5.389-22.905-13.508-31.644-23.45C309.029,381.582,354,395,354,395C413.072,384.607,414.908,315.895,414.908,315.895z"/>
        <path style="fill:#306BAD;" d="M316.221,352.455c12.285,5.881,24.8,7.824,38.113,9.758c3.932,0.57,8.797,1.435,13.564,1.537
			c-4.84-2.539-9.452-5.542-13.81-8.844c-9.37-7.099-18.427-15.21-26.129-24.117c-12.259-14.18-20.345-30.969-26.245-48.564
			c-3.295,0.394-6.094,0.949-8.504,1.312l-22.682,24.833C279.863,327.613,297.201,343.355,316.221,352.455z"/>
        <path style="fill:#010101;" d="M319.361,329.254c-8.639-11.994-17.058-25.051-21.313-39.363c-1.957,0.275-3.681,0.6-5.19,0.826
			l-17.307,18.946c7.122,14.684,20.35,26.694,34.861,33.638c9.292,4.446,18.758,5.942,28.815,7.405
			C332.006,344.106,325.087,337.205,319.361,329.254z"/>
        <path style="fill:#EFCAA7;" d="M275.182,304.315c0,0,10.687,20.085,24.251,7.679c5.899-5.396-7.659-23.3-7.659-23.3
			L275.182,304.315z"/>
        <g>
			<path style="opacity:0.7;fill:#99724E;" d="M339.051,166.513c-4.275,0.915-8.223,2.862-11.639,6.259
				c10.151,2.482,17.504,9.482,19.158,20.244c0.443,2.893-0.421,6.996-3.945,7.385c-3.829,0.428-7.193-2.201-10.478-3.97
				c0.515,7.101,5.381,25.794-5.232,25.039c-8.079-0.579-15.261-7.227-20.026-13.258c-3.108-3.942-5.772-8.147-8.254-12.477
				c1.041,5.7,3.213,13.736,1.129,19.381c-2.34,6.316-7.879-0.65-9.779-3.498c-6.438-9.625-13.754-18.921-21.613-27.537
				c5.064,9.207,9.629,18.658,10.975,29.154c0.039,0.419-0.107,0.955-0.602,1.017c-2.965,0.417-5.595-1.948-7.57-3.888
				c-3.146-3.1-5.875-6.607-8.583-10.092c-6.963-8.92-15.022-17.103-18.651-27.911c-1.104,8.575-2.238,17.682-8.816,23.42
				c-0.414,0.374-1.034,0.319-1.319-0.16c-3.352-5.599-1.734-11.618,0.175-17.424c-3.73,5.544-7.351,11.06-12.089,15.93
				c-4.775,4.903-9.753,10.503-16.222,13.157c-0.6,0.238-1.487-0.166-1.232-0.945c3.018-8.83,7.771-16.876,11.796-25.25
				c-4.109,4.963-7.971,10.129-12.311,14.891c-2.886,3.158-6.076,5.963-8.989,9.086c-2.184,2.342-4.337,4.598-7.052,6.332
				c-0.672,0.416-1.332-0.289-1.217-0.945c0.771-4.502,2.561-8.502,4.91-12.247c-2.876,2.583-5.576,5.35-8.995,7.27
				c-0.601,0.343-1.491-0.221-1.22-0.934c2.117-5.61,5.217-10.699,8.668-15.584c-5.827,6.645-10.833,14.081-12.832,22.537
				c1.747-1.201,3.529-2.193,5.766-2.275c0.673-0.006,0.963,0.714,0.717,1.252c-2.85,6.207-5.595,12.293-7.153,18.974
				c-0.173,0.71-1.171,0.796-1.517,0.196c-0.726-1.268-1.305-2.588-1.777-3.945c1.88,9.043,6.982,13.039,6.37,8.342
				c-0.982-7.579,3.491-10.639,3.491-10.639c-0.129,13.99,11.474,18.346,11.474,18.346l103.333,44.813
				c0,0,51.295-31.791,55.375-68.158c4.082-36.371-18.217-48.523-18.217-48.523L339.051,166.513z"/>
            <path style="fill:#F4D9BF;" d="M192.472,211.313c0,0-5.712,10.952-1.37,25.23c4.361,14.292-0.133,17.33-1.617,27.289
				c-1.485,9.974-7.928,35.092,34.016,54.326c9.752,4.477,58.02,3.055,75.955-27.209c7.298-12.347,14.371-22.627,11.863-43.723
				c0,0,7.385,5.359,12.371-8.531c4.984-13.869-13.95-22.67-19.871-8.727c0,0,0.581,13.563-6.762,2.41
				c-7.34-11.117-13.956-22.664-13.956-22.664s7.142,14.129,1.365,17.438c-5.768,3.307-41.62-37.5-41.62-37.5
				s-3.193,9.479-6.082,11.131c-2.872,1.648-5.619-7.309-5.619-7.309s-24.64,18.906-28.981,21.395
				c-4.317,2.475,0.667-11.398,0.667-11.398L192.472,211.313z"/>
            <path style="fill:#F4D9BF;" d="M235.48,292.639c-5.84-4.934-17.774-8.025-23.482-1.861c-0.102,0.111-0.218,0.176-0.336,0.217
				c-3.197,8.057,12.942,19.222,20.422,18.363C240.35,308.41,241.135,297.416,235.48,292.639z"/>
            <path style="fill:#F4D9BF;" d="M203.932,269.155c2.025,3.151,5.382,6.153,9.019,5.502c4.968-0.892,4.118-4.548,2.248-7.761
				C213.145,270.367,207.34,271.336,203.932,269.155z"/>
            <path style="fill:#F4D9BF;" d="M303.818,229.969c0,0,0.581,13.563-6.762,2.41c-7.34-11.117-13.956-22.664-13.956-22.664
				s7.142,14.129,1.365,17.438c-5.768,3.307-41.62-37.5-41.62-37.5s-3.193,9.479-6.082,11.131c-2.872,1.648-5.619-7.309-5.619-7.309
				s-24.64,18.906-28.981,21.395c-4.317,2.475,0.667-11.398,0.667-11.398l-10.358,7.842c0,0-4.527,8.732-2.421,20.756
				c0.936-1.943,2.122-3.742,3.622-5.26c7.558-7.636,20.827-9.97,31.106-10.874c9.475-0.833,19.869,0.085,27.626,6.182
				c7.04,5.534,12.36,13.148,16.011,21.28c6.693,14.918,10.788,35.014,3.434,50.479c-8.164,17.17-26.9,25.623-45.368,25.208
				c14.153,3.148,56.441-0.235,72.974-28.134c7.298-12.347,14.371-22.627,11.863-43.723c0,0,7.385,5.359,12.371-8.531
				C328.674,224.826,309.739,216.025,303.818,229.969z"/>
            <path style="fill:#C39368;" d="M311.098,230.701c-2.832,2.053-0.77,7.453,0.238,9.939c0.067,0.184,0.351,0.126,0.336-0.076
				c-0.07-1.105-0.305-2.232-0.482-3.353c2.127,0.579,4.322,0.5,6.353,1.505c0.262,0.144,0.475-0.221,0.287-0.42
				c-1.773-1.664-4.455-2-6.694-2.662c-0.05-0.016-0.075-0.001-0.132-0.012c-0.045-0.92,0.006-1.82,0.295-2.713
				c1.08-3.426,5.961-0.85,7.944-0.093c0.241,0.094,0.552-0.18,0.356-0.415C317.772,230.084,313.592,228.883,311.098,230.701z"/>
            <path style="fill:#C39368;" d="M211.791,263.98c0.429-0.71,0.736-1.537,0.885-2.085c0.402-1.493,0.861-3.377,0.202-4.847
				c-0.104-0.228-0.438-0.228-0.488,0.033c-0.216,1.428-0.331,2.736-1.063,4.027c-0.349,0.621-0.829,1.213-1.379,1.678
				c-0.342,0.3-0.665,0.492-0.85,0.841c-2.664-0.071-5.193,0.726-6.211,2.909c-1.665,3.563,3.434,7.382,5.971,8.873
				c0.211,0.135,0.422-0.207,0.236-0.363c-1.897-1.492-4.563-4.414-4.471-7.023c0.081-1.889,2.619-2.236,4.064-2.35
				c2.506-0.193,4.782,0.457,7.102,1.305c0.476,0.17,0.855-0.385,0.476-0.766C215.283,265.219,213.625,264.422,211.791,263.98z"/>
            <path style="fill:#941A26;" d="M214.666,289.367c-6.09,2.838,3.292,16.324,12.261,19.168c8.985,2.854,14.471-7.65,6.751-14.408
				C225.97,287.351,217.695,287.948,214.666,289.367z"/>
            <path style="fill:#AF1F2C;" d="M234.102,294.555c-5.14,2.953-8.863,9.083-6.381,14.166
				C236.042,310.679,240.922,301.108,234.102,294.555z"/>
            <g>
				<path style="fill:#3C1C10;" d="M198.835,254.572c-0.372,3.516-1.54,6.162-2.62,5.897c-1.057-0.265-1.615-3.344-1.238-6.872
					c0.376-3.529,1.545-6.178,2.602-5.9C198.657,247.963,199.203,251.039,198.835,254.572z"/>
                <path style="fill:#FFFFFF;" d="M196.922,251.334c-0.18,1.059-0.574,1.814-0.908,1.678c-0.311-0.129-0.418-1.052-0.248-2.12
					c0.168-1.044,0.563-1.796,0.886-1.664C196.965,249.342,197.09,250.293,196.922,251.334z"/>
			</g>
            <g>
				<path style="fill:#3C1C10;" d="M233.37,241.925c0.216,4.105-0.855,7.392-2.396,7.37c-1.532-0.03-2.949-3.371-3.164-7.464
					c-0.207-4.093,0.852-7.391,2.389-7.367C231.75,234.501,233.166,237.826,233.37,241.925z"/>
                <path style="fill:#FFFFFF;" d="M230.043,238.771c-0.023,1.232-0.439,2.188-0.891,2.141c-0.467-0.057-0.83-1.102-0.816-2.341
					c0.025-1.224,0.432-2.192,0.893-2.142C229.694,236.48,230.061,237.54,230.043,238.771z"/>
			</g>
            <path style="fill:#F8CBC1;" d="M237.895,264.111c0.836,2.566,6.52,3.049,12.693,1.069c6.185-1.97,10.514-5.673,9.699-8.239
				c-0.821-2.574-6.503-3.049-12.686-1.059C241.415,257.852,237.082,261.539,237.895,264.111z"/>
            <path style="fill:#F8CBC1;" d="M188.908,267.404c0.375,1.824,3.262,2.799,6.462,2.156c3.185-0.657,5.463-2.67,5.103-4.493
				c-0.383-1.841-3.262-2.8-6.465-2.155C190.82,263.551,188.533,265.568,188.908,267.404z"/>
            <path style="fill:#423020;" d="M230.156,214.239c-5.997,1.585-10.133,8.583-10.293,14.482c-0.014,0.29,0.455,0.351,0.555,0.093
				c1.948-4.724,4.943-7.207,9.693-9.693c5.715-2.99,10.393,1.898,12.585,3.437c0.635,0.436,1.9,0.121,1.694-0.865
				C243.072,215.569,235.693,212.79,230.156,214.239z"/>
            <path style="fill:#423020;" d="M194.234,231.182c-3.072,1.059-3.787,5.855-2.348,8.342c0.293,0.514,1.201,0.461,1.402-0.109
				c0.59-1.705,0.254-3.783,1.348-5.293c1.273-1.731,5.732-0.32,6.67,1.234c0.159,0.279,0.557,0.052,0.466-0.234
				C200.816,231.945,197.475,230.039,194.234,231.182z"/>
		</g>
        <path style="fill:#306BAD;" d="M362.816,218.08c0.297-23.219-16.049-55.656-31.43-68.428
			c-17.609-14.622-38.004-19.135-60.516-19.063c-38.607,0.125-85.836,19.618-99.938,58.799c-5.162,14.352-4.148,31.753,4.977,44.313
			c3.387,4.66,8.38,5.777,12.258,1.368c2.356-2.679-1.908-7.476-0.453-10.675c3.622-7.973,13.63-10.24,20.994-12.818
			c9.408-3.296,19.334-6.511,29.445-5.963c6.979,0.378,14.128,2.975,19.298,7.741c8.629,7.956,11.118,21.65,15.126,32.204
			c4.141,10.897,8.178,22.045,14.403,31.957c12.75,20.303,39.929,14.107,51.22,3.037C353.605,265.453,362.533,240.33,362.816,218.08
			z"/>
        <path style="fill:#306BAD;" d="M187.334,174.347c13.148-14.02,30.764-22.979,48.803-29.073
			c18.954-6.402,39.508-9.714,59.428-6.474c14.324,2.33,27.12,8.109,39.008,15.72c-0.752-0.715-1.508-1.399-2.26-2.022
			c-17.609-14.623-38.004-19.136-60.516-19.063c-38.607,0.124-85.836,19.618-99.938,58.799c-1.716,4.771-2.732,9.878-3.013,15.033
			C172.527,195.105,178.543,183.721,187.334,174.347z"/>
        <path style="opacity:0.5;fill:#306BAD;" d="M362.816,218.08c0.224-17.553-9.061-40.365-20.252-55.977
			c0.865,2.025,1.604,4.094,2.132,6.242c2.078,8.486,0.715,17.787-4.144,25.135c-10.234,15.484-33.856,24.582-51.441,17.246
			c-10.478-4.371-17.67-13.852-28.033-18.373c-10.013-4.369-22.083-4.932-32.842-4.093c-10.828,0.843-21.675,3.128-31.662,7.474
			c-4.611,2.006-8.816,4.563-13.174,7.041c-2.354,1.338-5.541,3.336-8.421,2.879c-4.25-0.676-5.688-4.953-5.963-9.447
			c-2.722,12.779-0.827,26.867,6.894,37.494c3.387,4.66,8.38,5.777,12.258,1.368c2.356-2.679-1.908-7.476-0.453-10.675
			c3.622-7.973,13.63-10.24,20.994-12.818c9.408-3.296,19.334-6.511,29.445-5.963c6.979,0.378,14.128,2.975,19.298,7.741
			c8.629,7.956,11.118,21.65,15.126,32.204c4.141,10.897,8.178,22.045,14.403,31.957c12.75,20.303,39.929,14.107,51.22,3.037
			C353.605,265.453,362.533,240.33,362.816,218.08z"/>
        <path style="opacity:0.5;fill:#306BAD;" d="M331.707,277.957c-7.791,2.234-15.54,2.016-22.678-2.059
			c-6.545-3.734-11.376-10.25-14.928-16.742c-9.035-16.515-11.179-36.607-23.758-51.197c-15.322-17.773-40.428-17.025-61.115-10.158
			c-16.848,5.592-33.158,17.031-33.957,34.959c0.214,0.313,0.415,0.634,0.639,0.941c3.387,4.66,8.38,5.777,12.258,1.368
			c2.356-2.679-1.908-7.476-0.453-10.675c3.622-7.973,13.63-10.24,20.994-12.818c9.408-3.296,19.334-6.511,29.445-5.963
			c6.979,0.378,14.128,2.975,19.298,7.741c8.629,7.956,11.118,21.65,15.126,32.204c4.141,10.897,8.178,22.045,14.403,31.957
			c12.75,20.303,39.929,14.107,51.22,3.037c3.29-3.223,6.262-6.924,8.94-10.936C342.535,273.457,337.139,276.399,331.707,277.957z"
        />
        <path style="fill:#1E9346;" d="M311.545,282.343c-8.324-3.445-14.453-10.31-18.656-18.142
			c-8.705-16.217-9.832-35.982-20.592-51.159c-6.486-9.149-15.844-15.134-27.094-16.296c-10.5-1.086-21.418,0.563-31.627,3.049
			c-10.168,2.477-23.183,6.308-30.282,14.52c-4.927,5.698-8.354,13.806-6.047,20.96c3.279,3.279,7.526,3.652,10.921-0.206
			c2.356-2.679-1.908-7.476-0.453-10.675c3.622-7.973,13.63-10.24,20.994-12.818c9.408-3.296,19.334-6.511,29.445-5.963
			c6.979,0.378,14.128,2.975,19.298,7.741c8.629,7.956,11.118,21.65,15.126,32.204c4.141,10.897,8.178,22.045,14.403,31.957
			c12.038,19.17,36.935,14.714,49.181,4.838C328.145,284.581,319.369,285.582,311.545,282.343z"/>
        <path style="fill:#DDC931;" d="M311.545,282.343c-8.324-3.445-14.453-10.31-18.656-18.142c-5.32-9.91-7.815-21.143-11.402-31.847
			c-4.031-6.386-8.527-12.45-14.014-17.588c-5.883-5.511-12.785-10.487-20.888-11.935c-7.41-1.322-14.874-0.627-22.199,0.92
			c-10.87,2.295-22.116,4.582-31.546,10.766c-8.158,5.348-16.246,14.215-8.581,23.127c1.356-0.355,2.686-1.188,3.909-2.575
			c2.356-2.679-1.908-7.476-0.453-10.675c3.622-7.973,13.63-10.24,20.994-12.818c9.408-3.296,19.334-6.511,29.445-5.963
			c6.979,0.378,14.128,2.975,19.298,7.741c8.629,7.956,11.118,21.65,15.126,32.204c4.141,10.897,8.178,22.045,14.403,31.957
			c12.038,19.17,36.935,14.714,49.181,4.838C328.145,284.581,319.369,285.582,311.545,282.343z"/>
        <path style="fill:#10161D;" d="M272.792,217.967c-7.405-8.415-21.737-7.832-30.978-8.01c-11.509-0.22-22.76,3.41-33.521,7.084
			c-5.569,1.902-11.082,4.034-16.47,6.404c-4.604,2.023-11.957,4.723-14.21,9.525c-5.371,11.447,2.268,26.625,9.871,35.617
			c2.574,3.045,7.176,2,11.165,0.865c3.068-0.873,5.041-4.223,6.523-6.779c1.415-2.438,2.672-4.961,4.205-7.33
			c3.8-5.873,7.574-2.959,11.508,0.051c4.41,3.377,8.573,5.496,14.16,6.146c8.543,0.994,35.684-4.86,41.557-11.474
			C283.477,242.33,280.156,226.334,272.792,217.967z M270.605,248.539c-5.345,5.73-28.836,10.482-36.678,9.561
			c-5.127-0.604-9.01-2.697-13.078-5.672c-3.627-2.65-9.417-4.76-12.863,0.34c-1.392,2.058-2.92,4.199-4.201,6.317
			c-1.342,2.221-1.743,5.118-4.553,5.858c-3.65,0.965-7.865,1.848-10.244-0.826c-7.034-7.893-12.36-21.326-7.508-31.277
			c2.037-4.174,6.983-6.338,11.193-8.074c4.926-2.031,9.969-3.854,15.066-5.479c9.845-3.135,20.142-6.229,30.698-5.962
			c8.477,0.214,21.619-0.202,28.467,7.187C273.711,227.858,276.86,241.835,270.605,248.539z"/>
        <path style="fill:#D04127;" d="M318.211,236.369c3.34,13.141,0.008,25.326-7.44,27.219c-7.446,1.893-16.191-7.226-19.53-20.365
			c-3.34-13.141-0.007-25.326,7.439-27.219C306.128,214.112,314.871,223.229,318.211,236.369z"/>
        <path style="fill:#1D2F42;" d="M270.35,217.621c-7.406-8.415-21.74-7.832-30.981-8.01c-11.507-0.22-22.759,3.41-33.519,7.084
			c-5.569,1.902-11.082,4.035-16.47,6.404c-4.604,2.023-11.958,4.723-14.211,9.525c-5.372,11.447,2.267,26.625,9.87,35.617
			c2.574,3.045,7.178,2,11.167,0.865c3.068-0.873,5.039-4.223,6.52-6.778c1.417-2.439,2.674-4.962,4.207-7.331
			c3.799-5.873,7.572-2.959,11.506,0.051c4.412,3.377,8.576,5.496,14.161,6.147c8.542,0.994,35.683-4.86,41.557-11.473
			C281.032,241.985,277.712,225.988,270.35,217.621z M268.16,248.193c-5.344,5.73-28.834,10.482-36.676,9.561
			c-5.129-0.604-9.012-2.697-13.079-5.672c-3.628-2.651-8.423-4.821-11.868,0.278c-1.393,2.058-2.529,4.249-3.811,6.368
			c-1.342,2.22-3.129,5.129-5.938,5.869c-3.651,0.966-7.867,1.848-10.246-0.826c-7.034-7.893-12.358-21.326-7.506-31.277
			c2.037-4.175,6.983-6.338,11.191-8.073c4.928-2.032,9.97-3.855,15.067-5.479c9.843-3.136,20.14-6.23,30.697-5.963
			c8.476,0.214,21.62-0.202,28.466,7.186C271.267,227.513,274.417,241.489,268.16,248.193z"/>
        <path style="fill:#4CBBC9;" d="M437.639,171.561c0,0,79.645,51.916,54.819,158.793
			C492.458,330.353,512.435,252.845,437.639,171.561z"/>
        <path style="fill:#4CBBC9;" d="M154.805,355.973c0,0,116.652,113.756,232.26,71.492
			C387.065,427.465,287.434,460.632,154.805,355.973z"/>
	</g>
    <g>
		<path style="fill:#010101;" d="M88.305,223.079c3.219,2.681,4.433,9.105,3.642,19.275c-0.152,1.675-0.594,4.049-1.324,7.12
			c-0.779,3.299-1.259,5.686-1.436,7.158c-0.254,2.25-0.505,3.499-0.757,3.748c-0.775,0.799-1.551,1.16-2.325,1.084
			c-0.851-0.177-1.323-0.789-1.422-1.84c-0.049-0.524,0.19-1.623,0.718-3.298c-0.1-0.05-0.281-0.095-0.544-0.132
			c-0.262-0.039-0.468-0.095-0.618-0.17l-1.76-1.166c-2.023-0.828-6.706-2.771-14.049-5.834c-0.774-0.325-2.035-0.864-3.783-1.617
			c-0.125,0-0.301,0.037-0.525,0.111c-1.148-0.826-2.446-1.604-3.896-2.331c-2.396-1.204-5.169-2.282-8.316-3.237l-0.075-0.226
			c-0.274,0.425-0.526,0.862-0.752,1.311c-0.176,0.35-0.395,0.88-0.658,1.592c-0.264,0.712-0.483,1.242-0.659,1.592
			c-0.551,1.098-1.527,1.922-2.928,2.47c-0.574-0.227-0.898-0.39-0.975-0.489c-0.772-0.951-0.482-2.588,0.871-4.909
			c0.2-0.399,0.515-1.336,0.941-2.81l0.34-1.237c3.236-7.317,5.18-11.5,5.831-12.55c2.08-3.395,3.421-5.441,4.021-6.141
			c2.154-2.545,4.406-3.979,6.755-4.301c0.876-0.123,1.874,0.316,2.997,1.317c1.648,1.453,2.543,3.903,2.688,7.352
			c0.048,1.525-0.156,4.111-0.612,7.76c4.984-6.315,10.15-9.88,15.5-10.697C85.795,221.912,86.831,222.277,88.305,223.079z
			 M56.578,229.1l-2.03,4.045c-0.577,1.15-1.054,2.473-1.432,3.973c3.372,1.13,5.533,1.934,6.481,2.41l4.495,2.256
			c0.904-2.797,1.724-6.857,2.457-12.18c0.38-2.748,0.296-4.635-0.253-5.661c-0.748-1.375-1.396-2.201-1.945-2.478
			c-1.149-0.576-2.675,0.283-4.578,2.579C58.547,225.617,57.481,227.302,56.578,229.1z M86.609,228.137
			c-0.599-0.799-1.272-1.139-2.023-1.016c-6.2,1.266-11.081,5.443-14.642,12.535c-0.577,1.149-1.153,2.423-1.73,3.821
			c5.32,2.358,10.827,4.655,16.521,6.888c0.35,0.176,0.55,0.275,0.6,0.301c0.449-0.021,0.936,0.005,1.459,0.082
			c1.193-3.246,1.873-7.093,2.041-11.537C89.026,234.097,88.284,230.406,86.609,228.137z"/>
        <path style="fill:#010101;" d="M110.217,193.658c2.536,1.424,4.591,3.473,6.165,6.142c1.009,1.669,1.524,3.903,1.544,6.7
			c0.019,2.8-0.41,5.076-1.29,6.832c-0.333,0.648-0.659,1.234-0.98,1.758c-3.098,5.05-7.351,7.653-12.758,7.811
			c-2.463,0.063-5.501-0.916-9.114-2.938c-0.19-0.115-0.918-0.693-2.183-1.732c-0.455-0.54-1.104-1.299-1.947-2.275
			c-1.65-1.799-2.707-4.35-3.174-7.652c-0.439-3.022-0.297-5.819,0.428-8.391c0.139-0.439,0.47-0.926,0.992-1.457l1.438-1.381
			c0.814-1.008,2.103-2.25,3.86-3.729c0.567-0.176,1.409-0.479,2.525-0.91c3.945-1.513,7.998-1.387,12.159,0.379
			C108.446,192.965,109.225,193.246,110.217,193.658z M96.775,197.114c-1.438,0.43-2.724,1.247-3.857,2.452
			c-0.521,0.533-1.384,1.512-2.586,2.938c0.064,6.072,2.258,10.434,6.576,13.082c3.322,2.039,6.724,2.193,10.205,0.459
			c2.354-1.177,4.088-2.671,5.198-4.481c0.38-0.618,0.616-1.801,0.708-3.549c0.092-1.747,0.008-2.995-0.252-3.744
			c-0.891-2.382-2.83-4.489-5.82-6.325C104.147,196.227,100.756,195.951,96.775,197.114z"/>
        <path style="fill:#010101;" d="M162.999,145.515c1.056,0.514,1.441,1.541,1.154,3.083c-0.287,1.541-0.895,2.652-1.823,3.334
			c-1.265,0.912-2.656,2.589-4.175,5.032c-1.755,2.901-3.2,4.86-4.335,5.88c-0.294,0.266-0.987,0.488-2.081,0.67
			c-1.061-0.734-1.642-1.216-1.742-1.445c-0.417-1.072-0.23-2.261,0.561-3.564c0.672-0.896,1.346-1.752,2.023-2.57
			c-1.219-1.156-4.779-3.166-10.681-6.031c-1.662-0.797-2.983-1.348-3.964-1.655c-8.048-2.465-13.232-2.301-15.552,0.493
			c-1.07,1.291-1.35,2.984-0.837,5.079l1.169,4.892l15.942,12.031c0.546-0.133,1.071-0.504,1.577-1.113
			c0.217-0.261,0.5-0.668,0.851-1.223c0.351-0.553,0.634-0.959,0.851-1.221c1.226-1.478,2.476-1.689,3.75-0.633
			c0.637,0.529,0.841,1.516,0.61,2.959c-0.231,1.441-0.652,2.49-1.266,3.143c0.363-0.352-1.079,1.43-4.326,5.343
			c-0.286,0.345-0.68,0.925-1.179,1.745c-0.502,0.819-0.894,1.4-1.179,1.744c-0.929,1.119-2.043,1.72-3.343,1.803
			c-0.271,0.064-0.558-0.027-0.857-0.277c-1.158-0.961-1.417-2.264-0.775-3.91c0.257-0.658,1.052-1.922,2.387-3.793
			c-2.109-1.822-4.362-3.649-6.758-5.477c-0.516-0.339-1.608-1.073-3.282-2.2c-1.236-0.953-3.531-2.641-6.885-5.061
			c-2.917-1.986-5.633-2.686-8.147-2.101l-1.856,1.06c-0.228,0.101-0.449,0.279-0.662,0.535c-1.172,1.412-1.388,3.943-0.647,7.59
			c0.131,0.543,0.25,0.967,0.357,1.271l0.754,1.711c-0.132,0.685-0.133,1.515-0.002,2.49c0.572,0.621,2.246,2.01,5.02,4.166
			c3.326,2.541,7.157,4.996,11.497,7.361l3.298-2.928c1.449-1.047,2.808-0.938,4.073,0.33c0.452,1.465,0.448,2.732-0.007,3.807
			c0.007,0.078-0.851,1.111-2.569,3.097c-0.579,0.608-1.257,1.535-2.034,2.778c-0.929,1.337-1.604,2.264-2.033,2.779
			c-1.106,1.334-2.164,2.344-3.172,3.032c-0.115,0.051-0.953,0.009-2.516-0.127c-1.615-1.122-2.007-2.537-1.174-4.242
			c0.064-0.164,0.787-1.562,2.168-4.192c-2.361-1.451-8.401-5.664-18.119-12.64c-2.306-1.695-3.875-2.743-4.707-3.144
			c-0.417-0.199-0.977,0.17-1.684,1.108c-1.277,1.628-2.027,2.53-2.249,2.71c-1.211,1.028-2.347,1.102-3.406,0.223
			c-1.612-1.338-0.969-3.926,1.932-7.766c1.413-1.877,2.477-3.027,3.191-3.451c1.321-0.719,2.668-0.328,4.038,1.172
			c0.051,0.115,0.873,0.653,2.472,1.615l-0.428-4.604c0.12-0.407,0.267-1.195,0.435-2.362c0.34-2.333,1.168-4.296,2.489-5.887
			c2.462-2.968,6.02-3.973,10.673-3.017c0.054-1.552,0.4-3.807,1.038-6.764c0.52-1.238,1.226-2.396,2.118-3.471
			c1.213-1.462,2.417-2.388,3.609-2.778c6.956-2.359,15.854-0.423,26.688,5.808c0.657,0.256,2.094,1.012,4.31,2.269
			c1.043,0.577,1.802,0.842,2.273,0.797c1.212-1.462,2.266-2.73,3.158-3.806l1.017-1.226
			C160.508,145.373,161.497,145.286,162.999,145.515z"/>
        <path style="fill:#010101;" d="M181.691,121.447c1.105,0.919,2.321,2.731,3.648,5.436c1.574,3.219,1.431,6.781-0.43,10.684
			c-1.597,3.426-3.962,6.241-7.094,8.443c-0.967,0.653-2.686,1.134-5.154,1.446c0.001,0.557,0.253,1.171,0.755,1.843
			c0.201,0.269,0.493,0.66,0.878,1.175c0.385,0.515,0.678,0.907,0.879,1.175c0.133,0.179,0.173,0.324,0.121,0.434
			c-0.01,0.982-0.337,1.855-0.981,2.617c-0.012,0.077-0.514,0.488-1.51,1.234c-0.245-0.236-0.669-0.442-1.273-0.619
			c-2.053-2.651-6.575-9.074-13.567-19.267c-0.669-0.895-1.964-2.719-3.882-5.472l-2.459-3.709l-2.811-3.76
			c-0.134-0.178-0.315-0.513-0.544-1.007c-0.228-0.491-0.466-0.855-0.71-1.091c-0.447-0.503-0.966-0.917-1.558-1.243
			c-1.501,1.82-2.476,2.897-2.922,3.231c-1.434,1.071-2.696,0.969-3.789-0.308c-1.161-1.364-0.48-3.163,2.037-5.395
			c0.593-0.513,1.605-1.444,3.039-2.795c0.47-0.491,1.217-0.892,2.239-1.204c1.024-0.311,1.764-0.253,2.222,0.171
			c0.636,0.571,1.705,2.04,3.207,4.406c0.661,1.042,1.688,2.61,3.083,4.708c0.736,0.985,2.091,2.937,4.065,5.857
			c0.122-0.021,0.229-0.066,0.317-0.133c0.535-1.516,1.535-3.153,3-4.912c1.466-1.758,2.913-3.031,4.34-3.82
			c2.297-1.299,4.811-1.747,7.542-1.348C177.114,118.625,179.55,119.699,181.691,121.447z M181.193,129.46
			c-0.213-0.469-0.519-0.973-0.92-1.51c-1.506-2.014-3.505-3.38-5.996-4.1c-2.715-0.831-5.035-0.527-6.959,0.911
			c-0.359,0.269-0.661,0.564-0.907,0.887c-0.604,0.592-1.342,1.893-2.21,3.903c-0.87,2.011-1.495,3.368-1.876,4.071
			c2.163,3.268,4.321,6.434,6.474,9.499c4.001-0.061,6.674-0.593,8.017-1.597c0.269-0.201,0.459-0.412,0.571-0.636
			C181.348,137.788,182.617,133.979,181.193,129.46z"/>
        <path style="fill:#010101;" d="M200.477,90.858c0.376,1.693,1.217,4.216,2.521,7.567c-0.052-0.099,0.434,0.657,1.455,2.268
			c1.075,1.961,0.62,3.454-1.365,4.48c-1.391,0.719-2.501,0.821-3.332,0.307c-0.178-0.097-0.684-0.591-1.52-1.479
			c-0.506-0.367-1.276-0.945-2.311-1.731c-0.077-0.149-0.243-0.408-0.498-0.781c-0.428-0.218-1.058-0.523-1.887-0.912
			c-0.279-0.295-0.733-0.626-1.363-0.994c-0.552-0.092-1.348,0.13-2.391,0.669c-3.127,1.617-5.33,3.38-6.607,5.291
			c-0.394,0.58-0.665,1.392-0.815,2.438c-0.151,1.047-0.073,1.866,0.232,2.459c0.153,0.296,0.368,0.528,0.645,0.698
			c1.08,0.506,2.354,0.535,3.822,0.088c0.82-0.362,2.064-0.879,3.73-1.553c0.326-0.095,0.99-0.329,1.991-0.702
			c0.546-0.282,1.403-0.631,2.573-1.046l7.024-1.742c3.021-0.364,5.109,0.697,6.269,3.183c1.159,2.487,1.489,4.646,0.989,6.479
			c-0.023,0.076-0.513,0.833-1.468,2.271c-1.371,2.095-3.274,3.77-5.706,5.027c-1.44,0.744-2.784,1.249-4.029,1.516
			c-0.523,0.082-1.484,0.295-2.878,0.638c-0.872,0.262-2.378,0.757-4.517,1.485c0.054,0.35,0.401,1.083,1.041,2.198
			c0.896,1.613,0.401,2.907-1.485,3.881c-1.39,0.719-2.528,0.646-3.414-0.217c-0.079-0.273-0.377-1.094-0.896-2.462
			c-0.106-0.448-0.481-1.417-1.126-2.909c-0.671-1.54-1.683-3.438-3.038-5.696c-0.409-0.669-0.295-1.483,0.342-2.441
			c0.638-0.957,1.341-1.543,2.113-1.753c1.146-0.34,2.214,0.083,3.204,1.269c1.499,1.806,2.438,2.831,2.815,3.074
			c0.857,0.564,2.157,0.522,3.898-0.127c0.798-0.16,2.294-0.493,4.486-0.998c2.117-0.528,3.838-1.763,5.161-3.706
			c0.956-1.438,1.101-2.801,0.433-4.092c-0.896-1.736-2.841-2.211-5.829-1.421c-1.864,0.775-3.978,1.616-6.34,2.522
			c-3.681,1.399-5.957,2.168-6.831,2.303c-2.991,0.541-5.476-0.125-7.45-1.999c-0.228-0.196-0.443-1.344-0.646-3.442
			c-0.085-0.772-0.159-1.647-0.223-2.621c0.351-1.879,0.808-3.185,1.373-3.918c2.555-3.333,5.569-5.898,9.045-7.695
			c2.929-1.514,5.583-2.098,7.962-1.756c0.193-0.478,0.149-0.989-0.133-1.536c-0.204-0.272-0.434-0.656-0.69-1.153
			c-0.08-0.398-0.007-0.955,0.222-1.671c0.228-0.715,0.49-1.15,0.788-1.304c0.346-0.304,1.367-0.58,3.063-0.828
			c0.25-0.002,0.579,0.33,0.988,0.999C200.133,89.779,200.333,90.305,200.477,90.858z"/>
        <path style="fill:#010101;" d="M296.919,99.915c-3.836,1.795-7.371,4.051-10.605,6.768c-0.596,0.474-1.673,0.774-3.232,0.9
			c-0.503,0.022-0.986-0.153-1.45-0.522c-0.465-0.37-0.707-0.808-0.729-1.31c-0.032-0.725,0.683-1.625,2.145-2.697
			c0.597-0.418,1.627-1.164,3.089-2.236c0.043-0.281-1.025-3.534-3.205-9.758c-2.962,0.077-7.746,1.298-14.353,3.663
			c-0.386,0.13-0.658,0.925-0.816,2.386c-0.104,0.172-0.204,0.429-0.301,0.769c0.008,0.168,0.367,0.403,1.08,0.707
			c0.713,0.304,1.128,0.537,1.248,0.7c0.119,0.162,0.186,0.411,0.201,0.746c0.035,0.782-0.243,1.452-0.833,2.009
			c-0.591,0.559-1.276,0.854-2.058,0.889c-0.227-0.045-1.237-0.14-3.034-0.284c-0.898-0.071-3.448-0.182-7.65-0.329
			c-3.475-0.124-5.239-0.828-5.297-2.113c-0.06-1.34,0.575-2.151,1.905-2.435c0.72-0.144,1.727-0.132,3.022,0.033
			c0.283,0.1,2.497,0.197,6.642,0.291c0.21-2.806,0.622-6.097,1.237-9.873c0.798-4.679,2.222-13.469,4.275-26.372
			c-0.564-0.086-1.152-0.117-1.767-0.089c-1.062,0.047-2.611,0.425-4.648,1.13c-2.039,0.708-3.589,1.083-4.648,1.131
			c-0.392,0.018-0.964-0.264-1.716-0.846c-0.066-0.22-0.102-0.415-0.11-0.582c-0.053-1.172,0.696-1.932,2.248-2.282
			c4.372-1.034,8.257-1.739,11.652-2.115l2.505-0.28c1.402,0.106,2.594,1.703,3.571,4.792c0.387,1.157,1.173,3.108,2.359,5.852
			c0.747,1.701,2.051,4.58,3.91,8.636l4.154,8.457c0.805,1.755,2.578,5.759,5.319,12.013c0.72-0.144,1.9-0.672,3.537-1.584
			c1.638-0.913,2.763-1.382,3.378-1.41c0.67-0.03,1.322,0.192,1.96,0.667c0.175,0.16,0.332,0.573,0.475,1.237
			c0.1,1.003-0.23,1.745-0.991,2.226C299.111,98.923,298.289,99.296,296.919,99.915z M281.103,86.76
			c-0.855-1.527-2.187-4.262-3.992-8.206c-0.308-0.655-1.951-3.93-4.931-9.826l-3.282,21.285c4.987-1.181,8.896-2.089,11.725-2.724
			C280.947,87.049,281.107,86.873,281.103,86.76z"/>
        <path style="fill:#010101;" d="M351.712,81.739c-0.125,1.335-1.059,2.006-2.799,2.011c-0.728-0.012-2.102-0.029-4.12-0.05
			c-1.149,3.376-3.343,9.882-6.578,19.519c-0.493,1.58-1.552,4.59-3.174,9.035c-0.431,1.027-1.185,2.836-2.265,5.429
			c-1.046,1.641-2.553,2.257-4.52,1.849c-0.657-0.118-1.116-0.584-1.374-1.396c-0.044-0.117-0.269-1.293-0.672-3.527
			c-0.868-4.681-1.676-9.691-2.424-15.034c-0.272-0.699-0.766-3.213-1.483-7.544l-0.219-0.357l-4.69,12.273
			c-1.999,5.146-3.85,9.012-5.554,11.604c-0.265,0.423-1.199,0.813-2.805,1.168c-1.089,0.234-2.056,0.06-2.899-0.524
			c-1.16-4.992-2.156-10.839-2.987-17.541l-2.08-16.445c-0.087-0.288-1.204-0.646-3.354-1.072c-0.439-0.096-0.898-0.434-1.379-1.013
			c-0.479-0.578-0.614-1.082-0.406-1.512c0.785-1.779,2.821-2.542,6.109-2.29c2.396,0.169,3.938,0.201,4.621,0.097
			c1.083-0.179,2.24,0.042,3.475,0.663c1.45,0.698,2.042,1.567,1.775,2.608c-0.164,0.546-0.781,0.994-1.852,1.342
			c-1.072,0.35-1.999,0.515-2.783,0.497c-0.295,0.141-0.448,0.884-0.462,2.23c0.012,1.068,0.164,2.429,0.459,4.084
			c0.424,2.061,0.659,3.43,0.709,4.108c0.25,2.718,0.486,4.985,0.709,6.802c0.404,3.462,0.896,6.287,1.478,8.474
			c0.919-1.429,2.139-4.262,3.66-8.497c0.678-1.844,1.86-5.185,3.55-10.023c0.419-1.476,0.835-2.924,1.25-4.345
			c0.55-1.688,1.265-3.024,2.145-4.009c2.24,0.042,3.853,0.502,4.838,1.38c0.206,0.188,0.636,1.884,1.29,5.088
			c0.269,1.317,0.755,3.916,1.458,7.799c0.336,2.389,1.055,7.003,2.153,13.842c0.693-0.214,1.243-1.5,1.648-3.86
			c1.495-4.129,3.808-11.074,6.938-20.836l-2.411-0.563c-0.929-0.369-1.505-0.873-1.728-1.512c0.168-0.603,0.291-1.012,0.368-1.229
			c0.208-0.431,0.518-0.738,0.929-0.926c1.347-0.604,2.894-0.936,4.64-0.997c3.548-0.117,5.71-0.139,6.489-0.066
			C350.447,78.758,351.89,79.849,351.712,81.739z"/>
        <path style="fill:#010101;" d="M389.115,106.925c-0.672,0.3-2.298-0.237-4.878-1.614c-1.758,1.41-3.982,2.486-6.676,3.228
			c-3.719,1.023-6.939,1.01-9.661-0.037c-3.105-1.174-5.02-3.603-5.744-7.288c0.075-1.412,0.123-2.816,0.146-4.213
			c0.191-1.618,0.615-2.922,1.27-3.915c2.603-4.02,5.98-6.601,10.129-7.743c1.185-0.326,2.36-0.476,3.528-0.449
			c-1.731-6.71-4.748-9.879-9.05-9.508c-0.8,0.046-1.564,0.373-2.296,0.979c-0.731,0.607-1.121,1.295-1.172,2.061
			c-0.049,0.768-0.292,1.733-0.725,2.895c-0.435,0.526-1.004,0.885-1.703,1.077c-1.186,0.326-1.988-0.062-2.407-1.164
			c-0.36-0.886-0.214-2.462,0.439-4.729c0.787-2.825,2.824-4.689,6.111-5.594c3.718-1.023,6.661-0.644,8.833,1.134
			c3.898,3.218,6.318,7.275,7.262,12.174l2.232,11.905c0.496,2.646,1.684,4.436,3.564,5.367c0.651,0.053,1.368,0.232,2.147,0.539
			c0.328,0.141,0.643,0.547,0.944,1.218C391.984,104.714,391.22,105.94,389.115,106.925z M377.948,87.827
			c-3.452,1.356-5.48,2.204-6.082,2.543c-1.807,1.019-3.21,2.448-4.21,4.289c-1.002,1.84-1.242,3.704-0.723,5.589
			c0.564,2.048,2.036,3.295,4.419,3.74c1.839,0.363,3.891,0.233,6.153-0.389c0.471-0.187,1.77-0.835,3.899-1.942
			c-0.384-0.764-0.776-1.873-1.177-3.328c-0.31-1.131-0.691-2.881-1.14-5.251C378.64,90.71,378.26,88.959,377.948,87.827z"/>
        <path style="fill:#010101;" d="M416.829,63.833c0.193,0.202,0.304,0.415,0.33,0.636c0.067,0.555-0.19,1.219-0.772,1.993
			c-0.582,0.775-1.158,1.14-1.726,1.095c-0.159,0.076-0.345,0.183-0.553,0.32c-0.561,0.013-1.255,0.097-2.08,0.252
			c0.108,3.233,0.15,5.677,0.127,7.331c-0.027,3.043-0.147,5.536-0.363,7.475c0.06,0.5,0.092,1.228,0.096,2.184
			c-0.501,1.918-1.035,4.713-1.604,8.384c0.047,0.389,0.035,0.756-0.035,1.102c-1.09,5.422-1.733,8.484-1.93,9.184
			c-0.942,3.378-2.388,6.086-4.337,8.124c-0.954,0.96-2.423,1.855-4.404,2.686c-1.982,0.831-3.722,1.337-5.22,1.518
			c-1.443,0.174-2.966,0.161-4.564-0.039c-2.231-0.293-4.663-2.251-7.297-5.873c-0.187-0.146-0.274-0.642-0.265-1.488
			c0.615-0.976,1.643-1.55,3.085-1.724c0.722-0.087,1.251,0.102,1.589,0.568c1.067,1.391,1.775,2.346,2.12,2.868
			c1.414,1.461,3.065,2.078,4.952,1.85c1.774-0.214,3.834-1.109,6.177-2.682c0.834-0.55,1.549-1.618,2.146-3.205
			c0.17-0.918,0.478-2.33,0.923-4.233c0.21-0.587,0.605-2.205,1.186-4.855c0.14-0.241,0.251-0.48,0.336-0.715
			c0.126-0.351,0.09-0.655-0.11-0.912c-0.332-0.409-3.13-3.07-8.396-7.987c-3.237-3.029-6.418-6.516-9.539-10.458
			c-1.063-1.329-2.189-2.735-3.382-4.218c-0.63-0.091-1.536-0.261-2.722-0.511c-1.183-0.25-1.973-0.603-2.365-1.061
			c-0.654-0.763-0.634-1.747,0.065-2.953c0.462-0.841,1.75-1.361,3.864-1.561c0.388-0.047,1.72-0.207,3.995-0.483
			c1.123-0.022,2.257-0.188,3.402-0.496c1.415-0.396,2.4-0.628,2.955-0.695c1.775-0.215,2.758,0.456,2.945,2.008
			c0.141,1.165-0.274,1.92-1.246,2.262c-0.715,0.144-1.43,0.288-2.144,0.429c-0.985,0.232-1.597,0.533-1.833,0.902
			c0.012,0.566,0.121,1.006,0.328,1.322c1.606,2.587,4.04,5.641,7.306,9.162c3.265,3.521,6.096,6.129,8.494,7.825
			c0.438-2.417,0.63-5.707,0.577-9.867l-0.183-10.533c-1.217,0.147-2.944,0.244-5.182,0.289c-1.306-0.123-2.251-0.516-2.835-1.176
			c-0.519-0.556-0.596-1.194-0.231-1.914c0.6-1.085,2.069-1.74,4.406-1.967c0.609-0.074,2.54-0.166,5.792-0.278
			c0.617-0.018,1.457-0.176,2.518-0.474c1.062-0.297,1.813-0.473,2.259-0.526C414.817,62.556,415.931,62.928,416.829,63.833z"/>
        <path style="fill:#010101;" d="M435.743,93.66c-0.153,0.994-0.7,1.787-1.64,2.376c-0.939,0.59-1.935,0.803-2.983,0.641
			c-0.662-0.103-1.531-0.519-2.605-1.251c-0.714-0.506-0.997-1.228-0.852-2.168c0.428-2.761,2.261-3.834,5.503-3.22
			C435.199,90.409,436.06,91.617,435.743,93.66z M435.429,81.99c-0.003,1.471-0.331,2.494-0.984,3.071
			c-0.392,0.336-1.195,0.409-2.409,0.221c-2.154-0.334-3.216-1.147-3.185-2.444c0.034-0.22,0.149-0.514,0.348-0.879
			c0.197-0.365,0.313-0.658,0.349-0.879c0.375-2.43,0.518-4.641,0.432-6.634l2.486-16.071c0.06-1.122,0.112-1.82,0.155-2.097
			c0.042-0.276,0.107-0.52,0.198-0.733c0.025-0.166,0.029-0.193,0.013-0.083c-0.182-2.119-0.202-3.452-0.061-3.996
			c0.178-0.424,0.708-0.739,1.588-0.942c1.647-0.424,2.946-0.223,3.894,0.603c0.945,0.825,1.292,2.066,1.035,3.723
			c-0.076,0.497-0.305,1.424-0.684,2.778c-0.291,1.143-0.464,2.078-0.518,2.804c0.038-0.616-0.135,0.319-0.519,2.804l-0.897,5.799
			c-0.034,0.221-0.408,2.821-1.122,7.8c-0.179,1.16-0.31,2.554-0.392,4.181C435.23,81.253,435.322,81.579,435.429,81.99z"/>
	</g>
    <g>
		<path style="fill:#010101;" d="M195.861,442.471c-1.253,0.35-2.669,0.146-4.248-0.607c-1.235-0.769-2.492-1.555-3.77-2.355
			c-0.963,1.227-2.047,2.664-3.251,4.313c-1.142,1.563-3.211,4.576-6.207,9.041c-1.459,1.996-2.315,3.168-2.568,3.515
			c-0.888,1.215-2.118,3.012-3.689,5.39c-1.573,2.379-2.215,3.373-1.93,2.982c-1.479,2.114-3.844,5.213-7.091,9.295
			c-0.564,0.586-1.329,0.975-2.3,1.164c-0.971,0.19-1.812,0.09-2.526-0.299c-0.088-0.064-0.508-0.67-1.264-1.822
			c0.314-0.701,0.487-1.306,0.525-1.813c0.046-1.429,0.223-4.129,0.527-8.1c0.364-2.594,0.913-6.486,1.645-11.676
			c0.026-3.041,0.226-7.822,0.596-14.34c0.14-0.83,0.285-2.121,0.436-3.875l0.048-0.065c-0.602,0.825-1.205,1.649-1.808,2.474
			c-0.729,0.998-1.52,2.117-2.373,3.357c-0.064,0.087-0.163,0.248-0.295,0.483c-0.132,0.237-0.245,0.42-0.341,0.551l-3.281,4.49
			c-1.521,2.082-2.771,3.699-3.744,4.851c-0.401,0.64-0.944,1.606-1.628,2.903c0.349,0.788,0.954,1.496,1.815,2.125
			c0.301,0.221,0.786,0.525,1.458,0.916c0.672,0.392,1.158,0.697,1.461,0.918c1.247,0.912,1.818,2.027,1.712,3.348
			c-0.418,1.026-1.38,1.387-2.889,1.084c-1.304-0.221-2.379-0.707-3.227-1.459c-1.151-0.975-3-2.227-5.544-3.752
			c-0.683-0.433-1.997-1.094-3.942-1.982c-1.697-0.775-2.948-1.521-3.752-2.243c-1.857-1.558-2.199-3.138-1.026-4.743
			c0.191-0.26,0.424-0.488,0.703-0.685c1.467-0.525,3.104-0.127,4.914,1.194l1.059,0.773c0.441,0.323,0.771,0.564,0.993,0.727
			c0.882,0.645,1.609,0.943,2.184,0.899c0.103-0.323,0.376-0.788,0.819-1.394l5.122-7.01c0.51-0.424,1.043-1.065,1.602-1.918
			l7.774-12.142l0.966-1.186c0.77-0.963,0.483-1.936-0.861-2.919c-0.348-0.254-0.9-0.591-1.657-1.011
			c-0.758-0.42-1.31-0.758-1.656-1.012c-1.649-1.205-1.84-2.674-0.571-4.41c0.19-0.26,0.603-0.441,1.24-0.541
			c0.636-0.101,1.121-0.063,1.456,0.115c0.613,0.249,1.774,1.064,3.482,2.444c0.518,0.378,1.308,0.905,2.37,1.583
			c1.063,0.676,1.811,1.172,2.242,1.488c0.389,0.283,0.74,0.913,1.055,1.887c0.314,0.975,0.452,1.717,0.411,2.228
			c-0.202,1.379-0.575,4.459-1.118,9.241c-0.279,3.315-0.727,9.295-1.346,17.939c-0.131,1.626-0.605,5.579-1.425,11.86
			c0.713-0.608,1.369-1.322,1.971-2.146c0.252-0.346,0.691-0.855,1.316-1.528c0.626-0.672,1.064-1.182,1.318-1.527
			c0.537-0.735,0.926-1.315,1.168-1.736l0.724-1.264l2.753-3.766c0.283-0.389,4.065-5.793,11.347-16.211
			c-0.143-0.17-0.321-0.335-0.538-0.493c-0.304-0.222-1.574-0.851-3.813-1.888c-0.533-0.455-1.276-1.032-2.23-1.729
			c-0.19-0.471-0.341-0.947-0.453-1.43c-0.257-0.652-0.267-1.094-0.033-1.322c0.222-0.303,0.631-0.637,1.229-0.998
			c1.039-0.239,2.094-0.133,3.163,0.315c0.379,0.21,1.3,0.817,2.764,1.819c2.709,1.848,6.377,4.16,11.001,6.941
			c0.639,0.4,1.188,1.084,1.645,2.051c0.457,0.967,0.48,1.733,0.069,2.297C196.391,442.293,196.16,442.425,195.861,442.471z"/>
        <path style="fill:#010101;" d="M205.471,482.853c-1.105,2.569-2.855,4.743-5.247,6.519c-1.493,1.135-3.577,1.854-6.25,2.156
			c-2.675,0.303-4.896,0.125-6.663-0.539c-0.653-0.252-1.247-0.504-1.78-0.759c-5.144-2.449-8.064-6.251-8.764-11.405
			c-0.311-2.349,0.317-5.353,1.882-9.014c0.092-0.193,0.57-0.947,1.435-2.262c0.471-0.49,1.131-1.188,1.98-2.094
			c1.552-1.76,3.883-3.03,6.993-3.812c2.846-0.728,5.535-0.875,8.067-0.443c0.434,0.089,0.932,0.354,1.493,0.801l1.466,1.233
			c1.047,0.678,2.366,1.782,3.958,3.314c0.226,0.524,0.601,1.299,1.126,2.321c1.848,3.619,2.139,7.508,0.873,11.665
			C205.953,481.09,205.764,481.862,205.471,482.853z M200.8,470.352c-0.557-1.332-1.469-2.479-2.736-3.439
			c-0.563-0.444-1.586-1.169-3.072-2.174c-5.799,0.678-9.745,3.218-11.84,7.616c-1.612,3.384-1.413,6.651,0.598,9.804
			c1.364,2.133,2.969,3.638,4.814,4.516c0.63,0.301,1.784,0.406,3.465,0.316c1.679-0.09,2.864-0.297,3.555-0.621
			c2.186-1.093,4.005-3.161,5.456-6.207C202.396,477.31,202.316,474.039,200.8,470.352z"/>
        <path style="fill:#010101;" d="M293.123,509.626c0.13,0.944-0.431,2.15-1.682,3.62c-1.253,1.471-2.374,2.431-3.364,2.88
			c-1.167,0.531-2.854,0.741-5.065,0.629c-1.885-0.118-3.458-1.224-4.721-3.313c-1.137-1.853-1.664-3.779-1.582-5.777
			c0.269-5.447,0.153-9.757-0.352-12.93c-0.079-3.108-1.167-5.28-3.264-6.518c-0.652-0.369-1.879-1.068-3.681-2.098
			c-0.205-0.085-0.471-0.125-0.797-0.119c-0.776,0.102-2.381,0.296-4.814,0.584l-1.154,7.733c-0.064,0.426-0.095,0.991-0.091,1.698
			c-0.021,0.866-0.055,1.459-0.103,1.777c-0.11,1.831-0.336,4.242-0.673,7.234c0.348,0.215,0.746,0.273,1.195,0.178
			c1.628-0.354,2.924-0.297,3.887,0.174c0.757,0.385,1.06,1.082,0.91,2.092c-0.215,1.435-1.593,2.288-4.132,2.561
			c-1.247-0.023-3.147-0.033-5.699-0.035c-2.941,0.049-4.785,0.018-5.528-0.093c-1.808-0.27-2.993-0.881-3.557-1.835
			c0.103-1.777,1.164-2.705,3.186-2.783c1.619,0.078,3.241,0.131,4.867,0.156c0.251-0.234,0.402-0.512,0.449-0.83
			c0.184-1.602,0.547-6.031,1.088-13.285c0.15-2.096,0.303-3.485,0.46-4.168c-0.949-0.195-1.575-0.371-1.878-0.525
			c-0.758-0.385-1.188-0.965-1.288-1.741l0.035-0.239c0.114-0.036,0.233-0.291,0.358-0.762c0.918-1.057,1.942-1.366,3.072-0.926
			c0.145-0.25,0.272-1.101,0.381-2.551c0.161-4.648,0.445-8.736,0.854-12.261c-0.182-0.243-0.626-0.364-1.332-0.362
			c-0.38-0.002-0.954,0.022-1.722,0.069c-2.87-0.429-4.149-1.325-3.836-2.692c0.297-1.26,2.706-1.932,7.228-2.018
			c2.818,0.042,5.608,0.105,8.366,0.19c0.433,0.011,2.308,0.372,5.624,1.085l3.473,0.763c5.417,1.19,8.508,4.151,9.268,8.882
			c0.125,0.617,0.023,1.662-0.305,3.133c-0.26,1.375-0.619,2.326-1.078,2.854c-1.608,2.042-4.378,3.665-8.307,4.872
			c-0.023,0.159-0.014,0.27,0.032,0.33c1.185,1.155,1.962,2.141,2.329,2.956c1.056,2.386,1.503,5.767,1.338,10.143
			c-0.212,5.782-0.197,9.506,0.043,11.172c-0.003,0.38,0.306,0.956,0.924,1.728c0.618,0.771,1.109,1.212,1.474,1.32
			c1.631,0.353,2.752-0.242,3.362-1.78c0.034-0.593,0.393-1.355,1.075-2.284c0.847-0.58,1.801-0.791,2.865-0.632
			C292.381,508.049,292.999,508.63,293.123,509.626z M281.357,479.264c0.55-0.407,0.9-1.115,1.051-2.125
			c0.54-3.613-0.926-6.17-4.397-7.666c-1.531-0.662-4.8-1.34-9.802-2.034c-0.479-0.071-1.228,0.034-2.248,0.316
			c0.093,0.829,0.02,1.498-0.218,2.005c-0.316,0.66-0.507,1.392-0.572,2.197c-0.091,0.964-0.25,2.762-0.479,5.389l-0.387,5.32
			c0.911,0.082,2.279,0.015,4.104-0.201c0.306-0.227,0.722-0.463,1.247-0.711c0.388-0.051,1.352,0.039,2.895,0.27
			C275.474,482.459,278.41,481.541,281.357,479.264z"/>
        <path style="fill:#010101;" d="M323.6,504.971c-0.102,0.594-0.552,1.176-1.352,1.748c-0.8,0.573-1.496,0.836-2.087,0.789
			c-2.852-0.262-5.596-0.501-8.229-0.717c-1.238-0.094-3.011-0.047-5.319,0.139c-2.631,0.244-4.266,0.611-4.905,1.102
			c0.068,1.344,0.596,2.869,1.582,4.578c1.041,1.87,2.129,3.014,3.262,3.43c0.593,0.209,1.374,0.309,2.341,0.297
			c1.612-0.017,3.676-0.443,6.193-1.276c0.746-0.544,1.921-1.257,3.523-2.134l1.611-0.018c0.325,0.211,0.705,0.584,1.142,1.115
			c0.175,1.235-0.204,2.326-1.134,3.277c-0.93,0.949-2.038,1.594-3.323,1.931c-4.449,1.123-7.317,1.692-8.606,1.706
			c-2.043,0.023-3.848-0.441-5.416-1.392c-3.03-1.794-5.362-6.2-6.997-13.224c-0.111-0.321-0.304-0.748-0.578-1.283
			c-0.056-0.107,0.099-0.808,0.461-2.102c0.205-0.754,0.225-1.506,0.056-2.258c0.108,0.107,0.296,0.158,0.565,0.156
			c0.152-0.809,0.408-2.021,0.767-3.637c-0.002-0.214,0.021-0.591,0.068-1.129c0.051-0.162,0.341-0.729,0.868-1.702
			c1.79-3.297,5.051-4.973,9.779-5.024l3.79,0.119c0.483-0.004,1.642,0.279,3.476,0.85c1.401,0.415,2.904,1.554,4.511,3.416
			c1.605,1.865,2.523,3.52,2.755,4.969c0.002,0.16,0.149,1.477,0.446,3.944c0.054,0.108,0.164,0.268,0.327,0.479
			C323.453,503.871,323.594,504.487,323.6,504.971z M317.524,502.297c0.05-0.323,0.073-0.647,0.07-0.969
			c-0.021-1.934-0.754-3.752-2.196-5.457c-1.442-1.703-3.131-2.518-5.064-2.443c-0.7-0.1-1.668-0.17-2.904-0.21l-2.173,0.347
			c-0.912,0.225-1.553,0.555-1.924,0.988c-1.697,2.114-2.505,4.327-2.426,6.637l3.069,0.611c1.293,0.255,2.583,0.293,3.871,0.118
			c0.805-0.116,2.74-0.056,5.806,0.179C315.535,502.238,316.825,502.305,317.524,502.297z"/>
        <path style="fill:#010101;" d="M368.072,510.461c0.413,1.287,0.555,2.162,0.426,2.627c-0.368,1.493-1.012,3.26-1.931,5.299
			c-0.607,0.828-1.207,1.547-1.8,2.154c-0.139,0.135-1.145,0.877-3.018,2.225c-2.839,2.027-6.288,3.433-10.35,4.219
			c-4.96,0.959-8.978,0.695-12.057-0.789c-1.996-0.982-4.069-2.361-6.218-4.134c-0.84-0.659-1.792-1.624-2.858-2.896
			c-0.554-0.878-0.932-1.846-1.136-2.9c-0.816-4.22,0.4-7.548,3.652-9.982l-2.989-2.296c-0.89-0.922-1.474-1.958-1.751-3.109
			c-0.051-0.264-0.075-0.669-0.071-1.218c0.004-0.547-0.02-0.953-0.07-1.218c-0.112-0.58,0.268-1.583,1.142-3.012
			c-1.68-1.043-2.702-1.94-3.065-2.691c-0.719-1.448-1.235-2.989-1.552-4.626c-0.836-4.325-0.01-8.398,2.481-12.219
			c0.434-0.303,1.006-0.742,1.715-1.317c0.128-0.188,0.325-0.445,0.59-0.77c0.912-0.943,2.305-1.951,4.178-3.025
			c0.74-0.416,1.643-0.699,2.708-0.852c1.17-0.171,2.109-0.27,2.815-0.299c0.053-1.705,0.729-3.451,2.025-5.234
			c1.298-1.783,2.732-2.854,4.305-3.213c5.234-1.23,8.21,0,8.924,3.692c0.122,0.634-0.431,1.315-1.657,2.044
			c-1.016,0.69-1.582,1.019-1.697,0.985c-0.391-0.033-0.857-0.19-1.404-0.468c-0.366-0.475-1.016-1.006-1.95-1.593
			c-0.179-0.074-0.347-0.097-0.505-0.066c-0.898,0.174-1.496,0.755-1.798,1.743l-0.725,2.193c3.291,1.17,5.996,3.41,8.114,6.723
			c0.626,0.975,1.066,2.12,1.321,3.439c0.511,2.639,0.051,5.354-1.38,8.147c-1.271,2.491-3.081,4.592-5.431,6.305
			c-2.542,1.86-4.999,3.02-7.373,3.479c-1.477,0.285-3.331,0.18-5.563-0.32c-0.257,0.652-0.334,1.242-0.232,1.77
			c0.378,1.952,2.326,2.834,5.848,2.645c1.413-0.053,4.19-0.262,8.335-0.626c7.878-0.866,13.905,0.87,18.083,5.206
			C366.833,507.17,367.473,508.496,368.072,510.461z M348.995,482.706c-0.009-2.022-0.714-3.967-2.117-5.83
			c-1.404-1.862-3.078-2.989-5.021-3.38c-1.142-0.217-2.639-0.146-4.492,0.212c-0.265,0.051-0.607,0.269-1.028,0.65
			c-0.422,0.383-0.732,0.621-0.934,0.714c-0.54,0.051-1.224,0.21-2.051,0.479c-2.446,1.842-3.809,4.459-4.087,7.851
			c-0.057,0.56,0.039,1.909,0.288,4.05c0.229,2.035,1.566,3.692,4.012,4.971c2.445,1.279,4.684,1.639,6.721,1.081
			c2.289-0.661,4.301-2.049,6.036-4.163C348.056,487.227,348.946,485.014,348.995,482.706z M363.472,512.992
			c-0.225-1.162-0.923-2.367-2.095-3.618c-2.608-2.724-6.141-4.012-10.599-3.861c-0.106,0.021-3.475,0.29-10.106,0.805
			c-1.493,1.056-3.007,2.142-4.542,3.259c-1.781,1.549-2.555,3.067-2.321,4.555c0.24,1.813,1.384,3.617,3.428,5.412
			c1.791,1.623,3.67,2.71,5.638,3.261c2.84,0.818,5.79,0.933,8.851,0.341c2.005-0.388,3.721-0.994,5.149-1.816
			C361.802,518.514,364.002,515.734,363.472,512.992z"/>
        <path style="fill:#010101;" d="M389.56,478.565c-0.472,1.24-1.367,1.988-2.685,2.244c-1.107,0.214-2.008-0.049-2.698-0.792
			c-0.346-0.37-0.816-0.963-1.411-1.778c-0.944-0.912-2.048-1.246-3.314-1.001c-1.689,0.327-3.178,1.546-4.465,3.655
			c-1.225,1.879-1.904,3.735-2.042,5.568c-0.068,0.78,0.381,3.238,1.346,7.375c0.369,1.625,1.027,4.316,1.974,8.074
			c0.073,0.096,0.199,0.18,0.378,0.255c0.369-0.071,0.905-0.202,1.607-0.393c0.702-0.19,1.237-0.321,1.606-0.393
			c1.899-0.368,3.23,0.004,3.993,1.115c0.008,0.326,0.1,0.801,0.275,1.424c-0.867,2.028-2.111,3.09-3.734,3.186
			c-1.498,0.18-2.711,0.415-3.64,0.704c-0.675,0.196-1.583,0.455-2.725,0.773c-3.05,0.645-4.686,0.962-4.906,0.951
			c-2.364,0.231-3.682-0.359-3.956-1.774c-0.337-1.741,0.618-2.886,2.866-3.434l2.928-0.567c0.088-0.674,0.034-1.373-0.161-2.104
			c-0.145-0.464-0.347-1.082-0.604-1.853c-1.165-4.317-2.312-8.966-3.44-13.948c-0.309-1.308-0.541-2.221-0.695-2.738
			c-0.341-1.193-0.742-1.992-1.202-2.395c-0.274-0.002-0.569,0.027-0.886,0.089c-0.528,0.103-1.31,0.377-2.345,0.823
			c-1.036,0.447-1.816,0.721-2.345,0.824c-0.368,0.07-0.723,0.086-1.06,0.04c-1.369-0.008-2.208-0.804-2.515-2.386
			c-0.133-0.685,0.117-1.378,0.748-2.074c0.632-0.697,1.291-1.113,1.976-1.245c2.331-0.396,3.898-0.782,4.702-1.157
			c0.455-0.197,1.289-0.549,2.504-1.059c2.303-0.828,3.866-0.667,4.692,0.486c0.292,0.383,0.473,1.168,0.539,2.359
			c0.316-0.061,0.871-0.442,1.667-1.145c1.08-0.92,1.667-1.416,1.764-1.49c2.274-1.535,4.141-2.361,5.596-2.48
			c1.243-0.076,1.976-0.108,2.197-0.097c1.845-0.083,3.684,0.793,5.517,2.626c1.079,1.052,1.711,2.05,1.895,2.999
			C389.554,478.102,389.572,478.344,389.56,478.565z"/>
        <path style="fill:#010101;" d="M422.97,487.697c-0.057,0.6-0.46,1.215-1.214,1.847c-0.754,0.632-1.428,0.948-2.021,0.946
			c-2.863-0.043-5.616-0.072-8.26-0.086c-1.242,0.001-3.006,0.182-5.293,0.545c-2.605,0.443-4.206,0.934-4.807,1.473
			c0.17,1.334,0.814,2.814,1.927,4.443c1.181,1.785,2.353,2.842,3.514,3.171c0.608,0.163,1.394,0.202,2.358,0.117
			c1.605-0.141,3.631-0.723,6.077-1.746c0.702-0.601,1.819-1.399,3.351-2.397l1.605-0.141c0.34,0.187,0.747,0.529,1.223,1.025
			c0.269,1.219-0.025,2.336-0.88,3.354c-0.854,1.019-1.91,1.745-3.167,2.179c-4.35,1.459-7.166,2.246-8.451,2.359
			c-2.034,0.178-3.869-0.147-5.506-0.975c-3.158-1.559-5.819-5.773-7.985-12.651c-0.137-0.311-0.361-0.724-0.675-1.235
			c-0.063-0.102,0.036-0.813,0.299-2.13c0.147-0.768,0.109-1.519-0.117-2.255c0.116,0.098,0.308,0.135,0.576,0.111
			c0.091-0.817,0.252-2.045,0.487-3.684c-0.02-0.214-0.025-0.592-0.019-1.132c0.038-0.165,0.284-0.753,0.735-1.764
			c1.533-3.424,4.656-5.343,9.367-5.756l3.788-0.17c0.482-0.042,1.658,0.151,3.53,0.581c1.429,0.307,3.015,1.327,4.759,3.063
			c1.742,1.736,2.785,3.316,3.126,4.742c0.014,0.16,0.262,1.461,0.746,3.899c0.063,0.104,0.184,0.255,0.363,0.454
			C422.739,486.613,422.928,487.217,422.97,487.697z M416.708,485.496c0.024-0.326,0.024-0.65-0.004-0.971
			c-0.169-1.928-1.038-3.685-2.606-5.274c-1.568-1.589-3.313-2.271-5.236-2.05c-0.706-0.045-1.676-0.041-2.912,0.013l-2.14,0.511
			c-0.892,0.295-1.506,0.672-1.843,1.133c-1.53,2.238-2.168,4.506-1.912,6.803l3.107,0.375c1.309,0.155,2.598,0.096,3.868-0.178
			c0.794-0.177,2.728-0.266,5.803-0.266C414.72,485.588,416.012,485.557,416.708,485.496z"/>
        <path style="fill:#010101;" d="M448.171,496.196c-0.71,1.675-1.48,3.075-2.314,4.202c-1.307,1.738-3.434,2.506-6.383,2.301
			c-2.305-0.162-4.216-0.941-5.734-2.341c-1.27-1.111-2.169-2.117-2.698-3.017c-2.262-3.875-2.996-9.15-2.205-15.83
			c0.223-1.652,0.178-2.545-0.137-2.676c-4.027-0.173-5.989-1.011-5.884-2.512c0.094-1.34,1.34-2.033,3.741-2.082l2.945-0.036
			c0.388-1.642,0.746-4.041,1.075-7.196l0.61-6.422c0.098-0.64,0.511-1.148,1.238-1.529c0.948-0.472,1.964-0.348,3.044,0.374
			c0.721,0.482,1.081,1.1,1.083,1.854c-0.026,1.13-0.631,5.155-1.814,12.074c0.476,0.142,1.046,0.073,1.711-0.204l1.906-0.674
			c0.703-0.059,1.762-0.173,3.175-0.344c0.206,0.123,1.032,0.262,2.476,0.415c1.122,0.133,1.907,0.456,2.357,0.974
			c0.303,0.291,0.49,0.68,0.564,1.17c0.143,1.033-0.369,1.807-1.536,2.316c-2.392,1.072-5.731,1.458-10.019,1.158
			c-0.38,0.027-0.739,0.164-1.079,0.409c-0.267,1.49-0.451,2.985-0.557,4.485c-0.686,9.811,1.753,14.91,7.317,15.299
			c0.216,0.016,0.866-0.748,1.951-2.287c0.299-0.41,0.47-0.909,0.512-1.5l0.196-2.814c0.214-0.738,0.864-1.204,1.956-1.398
			c0.382-0.08,1.169-0.16,2.36-0.238c0.605,0.581,0.873,1.381,0.802,2.398c-0.03,0.43-0.141,1.041-0.33,1.836
			C448.311,495.156,448.201,495.768,448.171,496.196z"/>
        <path style="fill:#010101;" d="M482.521,476.723c-0.787,1.47-1.754,3.837-2.902,7.098c0.024-0.104-0.096,0.752-0.36,2.566
			c-0.444,2.104-1.711,2.908-3.802,2.412c-1.465-0.348-2.339-0.969-2.623-1.864c-0.068-0.183-0.128-0.858-0.182-2.031
			c-0.139-0.585-0.338-1.488-0.6-2.71c0.037-0.157,0.078-0.45,0.126-0.882c-0.176-0.427-0.444-1.044-0.805-1.847
			c-0.02-0.391-0.142-0.917-0.372-1.58c-0.345-0.412-1.065-0.749-2.162-1.01c-3.295-0.78-6.006-0.874-8.135-0.281
			c-0.649,0.176-1.357,0.599-2.123,1.267c-0.767,0.668-1.223,1.315-1.37,1.94c-0.074,0.31-0.063,0.615,0.032,0.912
			c0.471,1.046,1.382,1.865,2.732,2.459c0.825,0.25,2.057,0.652,3.693,1.205c0.299,0.135,0.929,0.381,1.893,0.736
			c0.575,0.136,1.419,0.418,2.533,0.848l6.215,3.131c2.431,1.628,3.289,3.711,2.577,6.25c-0.713,2.539-1.825,4.321-3.338,5.346
			c-0.064,0.039-0.896,0.285-2.493,0.734c-2.313,0.67-4.75,0.698-7.312,0.092c-1.518-0.359-2.813-0.833-3.889-1.419
			c-0.434-0.268-1.267-0.715-2.499-1.339c-0.8-0.354-2.209-0.938-4.225-1.746c-0.18,0.289-0.386,1.041-0.618,2.256
			c-0.358,1.738-1.528,2.371-3.515,1.9c-1.465-0.348-2.25-1.113-2.355-2.298c0.113-0.249,0.411-1.034,0.891-2.357
			c0.203-0.393,0.536-1.336,1.001-2.828c0.477-1.544,0.928-3.563,1.354-6.058c0.121-0.744,0.714-1.267,1.779-1.566
			c1.065-0.299,1.944-0.284,2.64,0.046c1.049,0.47,1.563,1.447,1.542,2.934c-0.038,2.256,0.004,3.592,0.127,4.006
			c0.272,0.949,1.246,1.732,2.922,2.35c0.683,0.383,1.982,1.078,3.897,2.084c1.874,0.941,3.903,1.119,6.086,0.531
			c1.598-0.45,2.558-1.353,2.88-2.715c0.434-1.828-0.686-3.392-3.361-4.688c-1.846-0.603-3.913-1.314-6.204-2.134
			c-3.561-1.286-5.703-2.151-6.425-2.601c-2.522-1.479-3.915-3.522-4.181-6.126c-0.044-0.286,0.518-1.259,1.685-2.915
			c0.422-0.617,0.916-1.302,1.48-2.052c1.433-1.151,2.584-1.817,3.455-1.997c3.952-0.83,7.758-0.813,11.419,0.055
			c3.084,0.731,5.387,1.969,6.907,3.709c0.439-0.228,0.728-0.627,0.865-1.203c0.021-0.326,0.095-0.75,0.219-1.273
			c0.191-0.341,0.594-0.701,1.209-1.08c0.614-0.379,1.079-0.531,1.393-0.457c0.442-0.006,1.359,0.434,2.753,1.314
			c0.184,0.155,0.216,0.604,0.095,1.348C482.946,475.719,482.763,476.228,482.521,476.723z"/>
        <path style="fill:#010101;" d="M487.622,505.69c-0.301,0.92-0.942,1.586-1.926,1.999c-0.983,0.413-1.961,0.461-2.931,0.143
			c-0.612-0.2-1.372-0.73-2.277-1.593c-0.599-0.591-0.755-1.32-0.471-2.189c0.835-2.554,2.742-3.286,5.723-2.198
			C487.612,502.521,488.24,503.801,487.622,505.69z M489.141,494.567c-0.231,1.395-0.702,2.315-1.412,2.761
			c-0.424,0.258-1.198,0.202-2.32-0.165c-1.992-0.651-2.873-1.589-2.642-2.815c0.066-0.203,0.222-0.463,0.467-0.779
			c0.244-0.315,0.4-0.575,0.468-0.78c0.734-2.247,1.215-4.322,1.443-6.228l4.861-14.862c0.231-1.055,0.39-1.709,0.474-1.966
			c0.083-0.254,0.184-0.477,0.302-0.664c0.051-0.152,0.059-0.178,0.025-0.076c0.158-2.039,0.346-3.307,0.564-3.801
			c0.235-0.375,0.787-0.592,1.653-0.647c1.63-0.146,2.83,0.247,3.601,1.178c0.77,0.93,0.904,2.161,0.403,3.693
			c-0.15,0.459-0.511,1.304-1.082,2.529c-0.453,1.039-0.763,1.9-0.929,2.58c0.133-0.578-0.177,0.281-0.929,2.58l-1.754,5.361
			c-0.066,0.205-0.827,2.613-2.279,7.227c-0.351,1.073-0.691,2.375-1.022,3.906C489.067,493.838,489.103,494.16,489.141,494.567z"/>
	</g>
</g>
</svg>
